<svg xmlns="http://www.w3.org/2000/svg" width="127" height="27" viewBox="0 0 127 27" fill="none">
    <path d="M6.7055 11.9469H12.6387V20.2763C12.6387 24.4816 10.4812 26.8853 6.31813 26.8853C2.15508 26.8853 0 24.4816 0 20.2763V6.60903C0 2.40372 2.15753 0 6.31813 0C10.4787 0 12.6387 2.40372 12.6387 6.60903V9.16088H8.63012V6.34619C8.63012 4.46814 7.78181 3.75611 6.42355 3.75611C5.06529 3.75611 4.21699 4.47292 4.21699 6.34619V20.5487C4.21699 22.4267 5.06284 23.1029 6.42355 23.1029C7.78427 23.1029 8.63012 22.4267 8.63012 20.5487V15.6958H6.7055V11.9469Z" fill="white"/>
    <path d="M18.7633 17.8726L13.4087 0.301064H17.839L21.0753 12.279L24.3116 0.301064H28.3569L23.0023 17.8726V26.5842H18.7633V17.8726Z" fill="white"/>
    <path d="M39.0292 18.9621L41.9198 0.301064H47.8138V26.5842H43.8076V7.73443L40.8803 26.5842H36.8717L33.7138 7.99726V26.5842H30.0142V0.301064H35.9106L39.0292 18.9621Z" fill="white"/>
    <path d="M56.5985 0C60.7223 0 62.8406 2.40372 62.8406 6.60903V7.43336H58.8419V6.34619C58.8419 4.46814 58.072 3.75372 56.7236 3.75372C55.3751 3.75372 54.6053 4.47053 54.6053 6.34619C54.6053 11.7534 62.8897 12.7665 62.8897 20.2763C62.8897 24.4816 60.7322 26.8853 56.5691 26.8853C52.4061 26.8853 50.251 24.4816 50.251 20.2763V18.6611H54.2571V20.5487C54.2571 22.4267 55.1054 23.1029 56.4637 23.1029C57.8219 23.1029 58.6702 22.4267 58.6702 20.5487C58.6702 15.1415 50.3858 14.1284 50.3858 6.61858C50.3564 2.40372 52.4673 0 56.5985 0Z" fill="white"/>
    <path d="M69.5437 26.5842H65.3047V0.301064H69.5437V11.5646H74.3614V0.301064H78.6765V26.5842H74.3614V15.3207H69.5437V26.5842Z" fill="white"/>
    <path fill-rule="evenodd" clip-rule="evenodd" d="M91.2047 26.5842H95.4731L91.1581 0.301064H84.9552L80.6401 26.5842H84.5261L85.2617 21.8055H90.4691L91.2047 26.5842ZM89.893 18.2477H85.8109L87.8507 4.95558L89.893 18.2477Z" fill="white"/>
    <path fill-rule="evenodd" clip-rule="evenodd" d="M106.29 26.5563L106.3 26.5842L110.615 26.589C110.191 25.6142 110.152 24.6751 110.152 23.3992V19.3373C110.152 16.5966 109.458 14.6063 107.34 13.7437C109.227 12.8788 110.115 11.1154 110.115 8.41062V6.3462C110.115 2.28903 108.227 0.301064 103.834 0.301064H97.437V26.5819H101.669V15.8798H103.14C105.067 15.8798 105.915 16.7854 105.915 19.225V23.3562C105.915 25.4674 106.063 25.8963 106.29 26.5563ZM101.676 12.1285V4.06195L103.718 4.05478C105.221 4.05478 105.876 4.88151 105.876 6.75956V9.34965C105.876 11.4523 104.912 12.1285 103.333 12.1285H101.676Z" fill="white"/>
    <path d="M118.476 16.1092L117.164 18.5105V26.5842H112.927V0.301064H117.164V11.7534L122.712 0.301064H126.951L121.057 12.0162L126.951 26.5842H122.597L118.476 16.1092Z" fill="white"/>
</svg>